<svg width="24" height="25" viewBox="0 0 24 25" fill="none" xmlns="http://www.w3.org/2000/svg">
<path d="M8.414 11.157L12.364 7.20704C12.5462 7.01844 12.647 6.76584 12.6447 6.50364C12.6424 6.24144 12.5372 5.99063 12.3518 5.80522C12.1664 5.61981 11.9156 5.51465 11.6534 5.51237C11.3912 5.51009 11.1386 5.61088 10.95 5.79304L5.293 11.45C5.19981 11.5427 5.12587 11.6529 5.0754 11.7742C5.02494 11.8955 4.99897 12.0256 4.99897 12.157C4.99897 12.2884 5.02494 12.4186 5.0754 12.5399C5.12587 12.6612 5.19981 12.7714 5.293 12.864L10.95 18.521C11.0422 18.6166 11.1526 18.6927 11.2746 18.7451C11.3966 18.7976 11.5278 18.8251 11.6606 18.8263C11.7934 18.8274 11.9251 18.8021 12.048 18.7519C12.1709 18.7016 12.2825 18.6273 12.3764 18.5334C12.4703 18.4395 12.5445 18.3279 12.5948 18.205C12.6451 18.0821 12.6704 17.9504 12.6693 17.8176C12.6681 17.6849 12.6405 17.5536 12.5881 17.4316C12.5357 17.3096 12.4595 17.1993 12.364 17.107L8.414 13.157H18C18.2652 13.157 18.5196 13.0517 18.7071 12.8641C18.8946 12.6766 19 12.4223 19 12.157C19 11.8918 18.8946 11.6375 18.7071 11.4499C18.5196 11.2624 18.2652 11.157 18 11.157H8.414Z" fill="#2563EB"/>
</svg>
