<svg width="65" height="64" viewBox="0 0 65 64" fill="none" xmlns="http://www.w3.org/2000/svg">
<path d="M32.6667 6C18.3304 6 6.66669 17.6637 6.66669 32C6.66669 46.3363 18.3304 58 32.6667 58C47.0029 58 58.6667 46.3363 58.6667 32C58.6667 17.6637 47.0029 6 32.6667 6ZM42.0029 37.6025C40.9404 38.8975 37.0417 42.4125 32.6667 45.5413C28.2917 42.4163 24.3929 38.8975 23.3304 37.6025C20.8304 34.5563 19.6329 31.4275 19.6679 28.04C19.7067 24.1575 22.8204 20.9988 26.6092 20.9988C29.3592 20.9988 31.2717 22.55 32.3829 23.8438L32.6667 24.1875L32.9504 23.8438C34.0417 22.5363 35.9692 21 38.7242 21C42.5129 21 45.6267 24.1588 45.6654 28.0413C45.7004 31.4275 44.5017 34.5563 42.0029 37.6025Z" fill="white"/>
<path d="M43.1627 38.5538L43.1626 38.554C41.9741 40.0024 37.9481 43.6084 33.5392 46.7614L32.6672 47.385L31.7948 46.7619C27.3847 43.6118 23.359 40.0022 22.1708 38.554C19.4856 35.2821 18.1289 31.8205 18.168 28.0251L43.1627 38.5538ZM43.1627 38.5538C45.8462 35.2824 47.2044 31.8209 47.1653 28.0263M43.1627 38.5538L47.1653 28.0263M32.66 21.9707C34.0012 20.7139 36.0239 19.5 38.7242 19.5C43.3695 19.5 47.1187 23.3557 47.1653 28.0263M32.66 21.9707L47.1653 28.0263M32.66 21.9707C31.3225 20.7286 29.3121 19.4988 26.6092 19.4988C21.964 19.4988 18.2149 23.3541 18.168 28.0245L32.66 21.9707Z" fill="white" stroke="#04BBF1" stroke-width="3"/>
</svg>
