<svg width="96" height="96" viewBox="0 0 96 96" fill="none" xmlns="http://www.w3.org/2000/svg">
<rect width="96" height="96" rx="48" fill="#DBEAFE"/>
<path d="M24.2625 60.625C23.8764 60.6252 23.4986 60.5136 23.1745 60.3038C22.8505 60.094 22.594 59.7948 22.4362 59.4425C20.5268 55.1781 19.7149 50.5037 20.0745 45.8451C20.4341 41.1866 21.9537 36.6922 24.495 32.7713C27.0362 28.8504 30.5182 25.6278 34.6237 23.3971C38.7292 21.1664 43.3276 19.9986 48 20C48.5304 20 49.0391 20.2107 49.4142 20.5858C49.7893 20.9609 50 21.4696 50 22V48C50.0001 48.3862 49.8883 48.7642 49.6783 49.0882C49.4682 49.4123 49.1688 49.6686 48.8162 49.8263L25.0787 60.445C24.8225 60.5621 24.5442 60.6234 24.2625 60.625Z" fill="#2563EB"/>
<path d="M55.1988 24.5225C55.0537 24.4931 54.904 24.4962 54.7604 24.5317C54.6167 24.5672 54.4827 24.6341 54.368 24.7276C54.2534 24.8211 54.1609 24.9389 54.0972 25.0724C54.0336 25.206 54.0004 25.3521 54 25.5V48C53.999 49.158 53.6634 50.2911 53.0336 51.2628C52.4038 52.2346 51.5066 53.0037 50.45 53.4775L28.8913 63.125C28.7576 63.1847 28.6387 63.2729 28.5429 63.3836C28.4471 63.4942 28.3768 63.6245 28.3368 63.7653C28.2969 63.9061 28.2884 64.0539 28.3118 64.1983C28.3352 64.3428 28.3901 64.4803 28.4725 64.6013C30.1224 67.0278 32.1704 69.1582 34.53 70.9025C39.0006 74.2282 44.4281 76.0166 50 76C64.3363 76 76 64.3363 76 50C76 37.4438 67.0525 26.9375 55.1988 24.5225Z" fill="#2563EB"/>
</svg>
