<svg width="96" height="96" viewBox="0 0 96 96" fill="none" xmlns="http://www.w3.org/2000/svg">
<rect width="96" height="96" rx="48" fill="#EDE9FE"/>
<path d="M47.3175 32.1463L38.8425 23.6713C33.9895 25.5181 29.7946 28.7651 26.79 33H46.965C47.0638 32.9998 47.1604 32.9704 47.2425 32.9154C47.3246 32.8603 47.3886 32.7822 47.4263 32.6908C47.464 32.5995 47.4738 32.499 47.4545 32.4021C47.4351 32.3051 47.3874 32.2161 47.3175 32.1463Z" fill="#7C3AED"/>
<path d="M36.965 37H24.4538C22.1522 41.9058 21.4462 47.4096 22.435 52.7375L37.3175 37.8538C37.3874 37.7839 37.4351 37.6949 37.4545 37.598C37.4738 37.501 37.464 37.4005 37.4263 37.3092C37.3886 37.2178 37.3246 37.1397 37.2425 37.0847C37.1604 37.0296 37.0639 37.0002 36.965 37Z" fill="#7C3AED"/>
<path d="M59 36.965V24.445C54.0925 22.1506 48.5904 21.4478 43.2638 22.435L58.1463 37.3175C58.2161 37.3874 58.3051 37.4351 58.4021 37.4545C58.499 37.4738 58.5995 37.464 58.6908 37.4263C58.7822 37.3886 58.8603 37.3246 58.9154 37.2425C58.9704 37.1604 58.9998 37.0638 59 36.965Z" fill="#7C3AED"/>
<path d="M73.565 43.2625L58.6825 58.1463C58.6126 58.2161 58.5649 58.3051 58.5456 58.402C58.5262 58.499 58.536 58.5995 58.5737 58.6908C58.6115 58.7822 58.6754 58.8603 58.7575 58.9153C58.8396 58.9704 58.9362 58.9998 59.035 59H71.5463C73.8479 54.0942 74.5539 48.5904 73.565 43.2625Z" fill="#7C3AED"/>
<path d="M63.8537 47.3175L72.3325 38.84C70.4906 33.9798 67.2413 29.7792 63 26.775V46.965C63.0002 47.0639 63.0296 47.1604 63.0847 47.2425C63.1397 47.3247 63.2178 47.3886 63.3092 47.4263C63.4005 47.464 63.501 47.4738 63.598 47.4545C63.6949 47.4351 63.7839 47.3875 63.8537 47.3175Z" fill="#7C3AED"/>
<path d="M43.71 58.7212C43.8962 58.9001 44.1443 58.9999 44.4025 59H51.86C51.9926 58.9999 52.1239 58.9735 52.2463 58.9222C52.3686 58.8709 52.4795 58.7958 52.5725 58.7012L58.72 52.4512C58.9044 52.264 59.0077 52.0116 59.0075 51.7487L59 44.1475C58.9999 44.0152 58.9736 43.8841 58.9225 43.762C58.8715 43.64 58.7967 43.5292 58.7025 43.4362L52.4525 37.28C52.2649 37.0953 52.012 36.9919 51.7487 36.9925L44.1437 37C44.0114 37.0001 43.8804 37.0264 43.7583 37.0774C43.6362 37.1285 43.5255 37.2033 43.4325 37.2975L37.2762 43.5475C37.0915 43.7351 36.9882 43.988 36.9887 44.2512L36.9962 51.8487C36.9963 51.9832 37.0234 52.1162 37.076 52.2399C37.1286 52.3636 37.2057 52.4755 37.3025 52.5687L43.71 58.7212Z" fill="#7C3AED"/>
<path d="M48.6825 63.8537L57.1575 72.3288C62.0105 70.4819 66.2054 67.235 69.21 63H49.035C48.9362 63.0002 48.8396 63.0296 48.7575 63.0847C48.6754 63.1397 48.6114 63.2178 48.5737 63.3092C48.536 63.4005 48.5262 63.501 48.5455 63.598C48.5649 63.6949 48.6126 63.7839 48.6825 63.8537Z" fill="#7C3AED"/>
<path d="M37 59.035V71.555C41.9075 73.8495 47.4096 74.5523 52.7363 73.565L37.8538 58.6825C37.7839 58.6126 37.6949 58.5649 37.598 58.5456C37.501 58.5262 37.4005 58.536 37.3092 58.5737C37.2178 58.6115 37.1397 58.6754 37.0847 58.7575C37.0296 58.8396 37.0002 58.9362 37 59.035Z" fill="#7C3AED"/>
<path d="M32.1463 48.6825L23.6675 57.1613C25.5098 62.0209 28.759 66.221 33 69.225V49.035C32.9998 48.9362 32.9704 48.8396 32.9154 48.7575C32.8603 48.6754 32.7822 48.6115 32.6908 48.5737C32.5995 48.536 32.499 48.5262 32.4021 48.5456C32.3051 48.5649 32.2161 48.6126 32.1463 48.6825Z" fill="#7C3AED"/>
</svg>
