<svg width="45" height="45" viewBox="0 0 45 45" fill="none" xmlns="http://www.w3.org/2000/svg">
<g clip-path="url(#clip0_8_5549)">
<path fill-rule="evenodd" clip-rule="evenodd" d="M6.77703 32.0837L6.27089 31.208L6.52125 31.0656L6.63045 31.2548C6.67128 31.2158 6.71063 31.1831 6.75047 31.1607C6.97329 31.0343 7.23791 31.0987 7.35842 31.3075C7.44745 31.4612 7.43171 31.6168 7.31514 31.7724L7.08396 31.6105C7.13806 31.5485 7.15331 31.4924 7.12331 31.4412C7.08002 31.3661 7.00526 31.3563 6.9059 31.4129C6.83409 31.4539 6.80015 31.5046 6.80752 31.5631L7.02641 31.9417L6.77604 32.0841L6.77703 32.0837ZM9.98798 39.1601L10.291 38.7381L11.6426 39.6928C11.9909 39.2074 12.0027 38.7918 11.684 38.4439C11.5866 38.3361 11.4651 38.239 11.3308 38.1444L11.6018 37.7668C11.8074 37.9117 11.9353 38.0078 11.985 38.0483C12.0347 38.0888 12.0986 38.1566 12.1719 38.2586C12.5526 38.7786 12.5157 39.3552 12.0647 39.9913L13.0189 40.5826C13.0253 40.3811 13.0519 40.223 13.1065 40.103C13.3332 39.6059 13.8108 39.4508 14.2997 39.6698C14.7887 39.8889 14.9829 40.345 14.7567 40.8426C14.7041 40.9587 14.6003 41.0865 14.4517 41.2245L15.0031 41.4719C15.0282 41.428 15.0469 41.3865 15.0656 41.345C15.3828 40.6494 15.2318 39.843 14.6829 39.4474L14.9436 39.0303C15.767 39.6191 15.947 40.6372 15.4709 41.6816C15.8516 41.8524 15.9623 41.8846 16.3813 42.0036C16.5269 42.0451 16.644 42.069 16.734 42.0709C16.8462 42.0792 16.9642 42.0656 17.0906 42.0256C17.0537 41.906 16.9573 41.7607 16.8098 41.5958C16.6632 41.4265 16.5097 41.2977 16.3582 41.2119L16.492 40.7484C16.945 40.6172 17.3798 40.6133 17.7901 40.7299C18.2746 40.8679 18.6494 41.1397 18.9145 41.5416C18.8407 41.6485 18.6882 41.7802 18.4615 41.9377C18.218 42.1051 18.0035 42.2187 17.8132 42.2831C17.857 42.3617 17.9042 42.4129 17.9578 42.4426C17.9785 42.4534 18.0434 42.4763 18.1491 42.5065L19.398 42.7661L19.3965 42.7431C19.3975 42.7022 19.398 42.6607 19.4034 42.6202C19.4831 42.0163 19.9632 41.6387 20.5677 41.7172C21.1722 41.7958 21.5244 42.3139 21.4462 42.9046C21.367 43.5042 20.8948 43.892 20.2903 43.8134C19.9405 43.7681 19.6808 43.5964 19.521 43.3051C18.7896 43.21 18.6543 43.1895 17.8953 42.9734C17.7719 42.9383 17.6499 42.8656 17.5333 42.7568C17.4354 42.6675 17.3626 42.5714 17.312 42.467C16.9298 42.5856 16.5776 42.5987 16.2471 42.5046C15.435 42.2734 15.0695 42.0734 14.2628 41.7075C12.4523 40.8865 12.1099 40.6592 9.98847 39.161L9.98798 39.1601ZM5.70229 34.7033C5.55915 34.5033 5.5139 34.3062 5.56751 34.1067C5.61572 33.9223 5.74164 33.7608 5.94724 33.6164L7.67814 32.3983L7.97277 32.81L6.41009 33.9096C6.22711 34.0384 6.13661 34.1633 6.13612 34.2808C6.13464 34.3652 6.18924 34.4886 6.3009 34.6443L6.41157 34.7989L6.6575 35.1028C6.75194 35.2199 6.85474 35.2667 6.97132 35.2438C7.04805 35.2296 7.15233 35.1696 7.27776 35.0701L8.10017 34.416L8.41841 34.8096L7.61764 35.4467C7.40663 35.6145 7.24775 35.6941 7.13413 35.6916C7.41941 36.0443 7.58616 36.2199 7.87686 36.5238C7.99343 36.6458 8.10263 36.6873 8.21084 36.6546C8.26642 36.6336 8.35594 36.5682 8.47547 36.4556L9.25656 35.7199L9.60678 36.0858L8.69927 36.9405C8.29692 37.3195 7.92113 37.3224 7.57042 36.9566C6.89262 36.2492 6.26942 35.495 5.70327 34.7038L5.70229 34.7033ZM1.85239 24.9975C1.88732 24.7165 1.99356 24.5877 2.22327 24.4287C1.50513 24.298 1.04326 23.6984 1.02752 22.9574C1.00883 22.0847 1.68171 21.3798 2.58479 21.3608L3.09831 21.35L3.10913 21.8588L2.65513 21.8686C1.94487 21.8832 1.50857 22.3018 1.52284 22.9608C1.53514 23.5516 1.93896 23.9892 2.40674 23.9789C2.69055 23.9731 2.88877 23.8009 2.88287 23.5096C2.88238 23.4823 2.88188 23.455 2.87647 23.4282L3.34375 23.4184L3.34818 23.6184C3.35654 24.0184 3.17947 24.3223 2.82188 24.5297C2.67185 24.615 2.56266 24.698 2.48839 24.7863C2.23556 25.0858 2.50855 25.4497 2.58135 25.8644C2.72891 25.7512 2.90156 25.6751 3.09585 25.6414C3.7102 25.5356 4.2124 25.878 4.31668 26.4737C4.42145 27.0693 4.02746 27.5571 3.43623 27.6596C2.84008 27.7625 2.32656 27.4356 2.2213 26.8356C2.15391 26.4507 1.8219 25.2448 1.85289 24.997L1.85239 24.9975ZM5.24484 11.1862L5.51783 10.7657L5.94576 11.0388L5.67277 11.4593L5.24484 11.1862ZM3.34523 27.1444C3.68856 27.0849 3.90498 26.8351 3.85235 26.5351C3.80218 26.2483 3.54247 26.0951 3.19029 26.1556C2.86516 26.2117 2.63496 26.4639 2.68759 26.7639C2.73875 27.0551 3.01125 27.202 3.34523 27.1439V27.1444ZM0.0290205 23.6604L0.0181993 23.1603L0.526796 23.1496L0.537617 23.6496L0.0290205 23.6604ZM20.9233 42.8353C20.9686 42.4929 20.7934 42.2085 20.4939 42.1695C20.2076 42.1319 19.9715 42.3446 19.9268 42.6827C19.882 43.0207 20.0615 43.3056 20.366 43.3451C20.6479 43.3817 20.878 43.1778 20.9233 42.8353ZM5.12335 16.9889L5.28124 16.5137L5.76475 16.6718L5.60686 17.1469L5.12384 16.9889H5.12335ZM5.87985 13.9438L4.42588 13.1223C3.70922 12.7174 3.5892 12.2365 3.97975 11.5569L4.36193 11.773C4.15092 12.1404 4.22962 12.4257 4.61229 12.6418L6.13366 13.5014L5.87936 13.9438H5.87985ZM3.17307 30.0187C3.08306 29.7899 3.08749 29.5879 3.18881 29.4074C3.28079 29.2401 3.44262 29.1143 3.67774 29.0235L5.65556 28.2596L5.84001 28.7299L4.05451 29.4196C3.84546 29.5006 3.72692 29.5996 3.6979 29.7138C3.67577 29.7953 3.69839 29.9284 3.76824 30.106C3.83858 30.2855 3.88826 30.425 3.96745 30.5977C4.03779 30.7509 4.12731 30.8251 4.23995 30.8295C4.29946 30.8275 4.40522 30.7948 4.55573 30.727L5.53603 30.2846L5.74852 30.748L4.60934 31.2622C4.10468 31.49 3.74807 31.3714 3.53509 30.908C3.38261 30.5763 3.30194 30.348 3.17258 30.0187H3.17307ZM5.63588 32.7427C5.94625 32.5661 6.05742 32.2832 5.91133 32.0305C5.77656 31.7978 5.46127 31.7729 5.19074 31.9266C4.91234 32.0846 4.7815 32.3793 4.9207 32.6198C5.05744 32.8564 5.37371 32.8915 5.63588 32.7422V32.7427ZM8.74649 34.5472L8.43071 34.1569L8.82765 33.8413L9.14294 34.2316L8.746 34.5472H8.74649ZM0.0108212 22.8013L0 22.3013L0.508597 22.2905L0.519418 22.7906L0.0108212 22.8013ZM4.73821 26.6502L4.65263 26.1619L5.15385 26.0751L5.23943 26.5634L4.73821 26.6498V26.6502ZM11.1129 35.9672L10.5379 35.4258L10.683 35.274L10.8158 35.3994C10.8556 35.3179 10.8807 35.2721 10.8965 35.256C11.045 35.1009 11.2683 35.0984 11.4115 35.2331C11.5044 35.3209 11.527 35.436 11.4818 35.5755L11.3023 35.5253C11.3396 35.4662 11.3283 35.4121 11.2787 35.3653C11.2088 35.2994 11.1055 35.3214 11.046 35.3838C10.9924 35.4399 10.9712 35.5014 10.9889 35.5623L11.258 35.816L11.1129 35.9677V35.9672ZM8.81978 38.1776L8.45087 37.8302L10.4897 35.7004L10.8586 36.0477L8.81978 38.1776ZM5.06777 33.6686C4.59459 33.9374 4.19174 33.7891 3.8612 33.2174L4.21535 33.0164C4.38308 33.2881 4.64968 33.3198 4.96448 33.1515C4.78593 33.1535 4.6364 33.05 4.51982 32.8486C4.22568 32.3398 4.40768 31.7856 4.93644 31.4851C5.47356 31.1797 6.04217 31.3231 6.32942 31.8202C6.63045 32.3407 6.43223 32.8939 5.9069 33.192L5.06777 33.6691V33.6686ZM1.92863 20.0017L1.99504 19.5012L4.93103 19.8836L4.86463 20.3841L1.92863 20.0017ZM18.2692 41.5128C18.1049 41.3387 17.9057 41.2201 17.6809 41.1562C17.4561 41.0923 17.2092 41.0884 16.9504 41.1426C17.2003 41.3177 17.401 41.5641 17.5481 41.8802C17.6632 41.8612 17.793 41.808 17.9391 41.7314C18.0695 41.6597 18.1811 41.5875 18.2692 41.5128ZM14.3189 40.645C14.438 40.384 14.3627 40.1406 14.133 40.0377C13.8866 39.9269 13.6637 40.0518 13.5506 40.3006C13.4355 40.5533 13.5073 40.8148 13.7331 40.9162C13.9544 41.0158 14.2063 40.8938 14.3194 40.6455L14.3189 40.645ZM5.98069 12.3872L5.62998 12.1633L6.22318 11.2501C6.41206 10.9593 6.3368 10.6305 6.01315 10.4237C5.87051 10.3325 5.7254 10.3047 5.5744 10.3432C5.42339 10.3822 5.30043 10.471 5.21336 10.6047L4.91283 11.0671L4.46178 10.7788L4.6605 10.473C4.86659 10.1559 5.10368 9.9505 5.37175 9.85684C5.67769 9.75488 5.99003 9.80318 6.31024 10.0076C6.62996 10.212 6.81589 10.4549 6.86704 10.7369C6.91574 10.9896 6.84983 11.2506 6.67865 11.514L6.3732 11.9842C6.84786 12.1847 7.16905 12.0764 7.41253 11.7023C7.50697 11.5569 7.54091 11.4379 7.54435 11.3647L7.91424 11.6013C7.89702 11.7037 7.85571 11.8345 7.76619 11.9716C7.52271 12.3462 7.22217 12.5652 6.8213 12.5955C6.51142 12.6194 6.23056 12.5477 5.98019 12.3877L5.98069 12.3872ZM6.12874 30.5665L5.92166 30.1153L6.38451 29.906L6.59159 30.3572L6.12874 30.5665ZM3.56215 14.0268C3.66396 13.8029 3.81251 13.6653 4.01319 13.6107C4.19765 13.5585 4.40177 13.5853 4.63197 13.6882L6.56602 14.5551L6.35648 15.0151L4.61033 14.2326C4.40571 14.1409 4.25126 14.1268 4.14895 14.1853C4.07468 14.2268 3.99499 14.3356 3.9158 14.5097C3.54493 15.3239 3.29801 16.18 3.00436 17.0625C3.2744 17.1508 3.52968 17.1528 3.77119 17.064C4.05205 16.9596 4.24388 16.7445 4.34865 16.4293C4.38456 16.3215 4.39833 16.1917 4.38653 16.0395C4.37275 15.863 4.32455 15.7034 4.24142 15.5615C4.34865 15.5439 4.50064 15.5073 4.70182 15.4537C4.78347 15.6288 4.83806 15.8142 4.85725 16.0166C4.87692 16.2337 4.85282 16.4361 4.78986 16.6264C4.69099 16.9245 4.5336 17.165 4.31963 17.344C3.94531 17.6572 3.48443 17.7435 2.86614 17.5845C2.80023 17.9289 2.78105 17.984 2.73039 18.2723C2.70137 18.4382 2.73285 18.5494 2.82335 18.6158C2.87352 18.6475 2.97977 18.6797 3.14209 18.708L5.0658 19.0402L4.97776 19.5416L2.88238 19.1797C2.33591 19.0855 2.10915 18.7875 2.1972 18.286C2.3423 17.4586 2.45986 17.0415 2.77072 16.1069C3.04273 15.2883 3.23407 14.7444 3.56165 14.0263L3.56215 14.0268ZM7.36531 38.1893L7.021 37.8302L7.39335 37.4795L7.73766 37.8385L7.36531 38.1893Z" fill="#231F20"/>
<path fill-rule="evenodd" clip-rule="evenodd" d="M11.4616 7.39821L8.49417 7.39675C9.22755 7.86067 10.1415 8.71144 10.9506 9.16219L10.0229 12.1335C10.3215 11.9047 12.224 10.4857 12.5443 10.3847C13.3401 10.7423 14.2481 11.7277 15.012 12.1082L14.0745 9.1939L16.5584 7.42553L13.5496 7.3987C13.4995 7.33041 13.4975 7.33675 13.4429 7.23138C13.3809 7.11284 13.4296 7.22162 13.3706 7.06552C13.1512 6.48598 12.7631 4.97518 12.5447 4.54199C12.3475 4.80688 11.8891 6.50159 11.6992 7.04308C11.5915 7.35089 11.6968 7.24845 11.4621 7.39724" fill="#1E2A5B"/>
<path fill-rule="evenodd" clip-rule="evenodd" d="M21.9361 12.8807C20.5052 13.2797 19.4452 14.6085 19.7989 16.4984C20.0571 17.878 21.427 19.2848 23.1825 18.8224C24.5135 18.4712 25.6281 16.9769 25.2897 15.2588C25.0172 13.8749 23.6817 12.3943 21.9361 12.8807Z" fill="#1E2A5B"/>
<path fill-rule="evenodd" clip-rule="evenodd" d="M18.5254 7.20732L18.5328 11.0807C19.8466 11.9719 27.3024 12.0851 28.5218 11.1138L28.5286 6.99463C28.2586 7.08488 26.598 8.26542 26.1883 8.54348C23.4599 10.3943 23.269 10.4392 20.8421 8.86739L18.5254 7.20732Z" fill="#231F20"/>
<path fill-rule="evenodd" clip-rule="evenodd" d="M29.656 40.5086C29.3471 40.6033 26.0821 39.4222 25.5803 39.2208C21.5883 37.6178 18.5874 35.6084 15.9421 32.4375C12.5988 28.4296 11.5698 23.7518 11.3362 23.4303L9.90631 22.0903C8.95011 21.0429 8.34265 20.2277 7.56942 18.8833C7.49417 19.3336 8.42233 22.5547 8.61121 23.1508C9.92402 27.2983 11.833 30.5823 14.6519 33.5678C17.2854 36.3567 21.0723 38.5227 25.0526 39.6564C25.9365 39.9081 28.7765 40.6101 29.656 40.5096" fill="#00AEEF"/>
<path fill-rule="evenodd" clip-rule="evenodd" d="M30.2497 40.3975C29.7008 40.0907 28.958 39.7882 28.3855 39.5072C26.5666 38.614 24.7638 37.4764 23.2144 36.2734C21.0891 34.6231 19.4777 32.9118 17.8904 30.4288C14.7498 25.5164 14.6824 20.9928 14.3445 20.0551L13.0981 18.4639C11.9742 16.8287 11.2678 14.9715 11.1453 14.7949C11.0809 17.7458 11.9255 21.824 12.7685 24.3207C13.7518 27.232 15.0513 29.5526 16.616 31.6196C18.9706 34.7304 22.393 37.313 26.087 38.9394C26.9586 39.3233 29.2576 40.2814 30.2502 40.3975" fill="#2778AF"/>
<path fill-rule="evenodd" clip-rule="evenodd" d="M31.8862 3.52103C31.3461 2.85417 24.8298 0.0525826 23.5204 0.00136082C22.5932 -0.0347383 19.8077 1.05946 18.9809 1.39752C18.2377 1.70143 15.1669 2.93905 15.1704 3.5181C15.1743 4.15422 20.7733 8.05586 21.8338 8.72418C23.482 9.76276 23.2887 9.65495 25.6974 8.20806C26.1155 7.95683 27.8174 6.90849 29.3319 5.83625V5.83381C29.3304 5.82357 29.3279 5.81332 29.326 5.80259C29.324 5.79283 29.322 5.78259 29.3191 5.77283L29.3176 5.76747C28.9807 4.65912 23.8849 3.89372 23.8849 3.89372L24.207 3.5142C24.207 3.5142 28.4824 4.18008 29.5276 5.08158C29.5434 5.09475 29.5576 5.10792 29.5719 5.1211C29.69 5.23183 29.7564 5.34842 29.7564 5.47038L29.7578 5.52941C30.8685 4.71864 31.7912 3.93714 31.8862 3.52103Z" fill="#231F20"/>
<path fill-rule="evenodd" clip-rule="evenodd" d="M29.4086 39.485C29.1558 39.2333 28.7564 39.007 28.4145 38.7089C28.055 38.3952 27.7982 38.1733 27.4898 37.8596C26.8794 37.2396 26.3993 36.6815 25.8543 35.8761C24.8706 34.4233 24.1446 32.5467 24.1711 30.2875C24.2218 25.9552 27.3801 23.1765 29.7598 21.5047C28.0884 21.5267 26.933 22.0779 24.1579 21.694C22.4471 21.4569 21.0054 20.7759 19.9725 19.8539C18.9632 18.9524 18.1413 17.8665 17.4408 16.3757C16.9195 15.2659 16.1285 13.1634 15.921 11.9258C15.5348 14.7527 15.7714 18.8002 16.2382 21.5047C16.736 24.3888 17.6405 27.0274 18.8112 29.2914C20.5755 32.7047 23.1023 35.477 26.0781 37.5703C26.694 38.0035 28.6816 39.2762 29.4096 39.4855" fill="#1E2A5B"/>
<path fill-rule="evenodd" clip-rule="evenodd" d="M31.806 23.0784C31.6334 23.171 31.8094 23.1218 31.7066 23.1076C31.5227 23.0827 31.6791 23.0954 31.6983 23.0784C31.5286 24.3389 31.5315 25.8663 31.2143 27.0137C30.75 28.6937 29.8661 30.0026 28.7874 31.2099C28.419 31.6226 28.024 31.949 27.6821 32.3383C26.8464 33.2895 27.721 34.272 29.897 33.6022C30.7381 33.3432 31.1366 33.1227 31.623 32.6422L32.5379 31.8626C34.8625 29.5782 35.106 27.0546 35.7867 26.2644C36.4754 25.4648 37.8255 24.9238 38.9214 25.8331C40.2785 26.9595 39.0065 31.5851 38.3887 33.0593C35.3106 40.4054 25.5297 42.4187 24.9095 43.9246C24.5396 44.8227 25.0693 45.0998 25.8957 44.9696C27.933 44.6495 30.8631 43.7563 32.7233 42.9353C38.3976 40.4318 43.2204 34.8642 44.5558 28.2191C46.0885 20.5948 43.5652 13.5116 38.4251 8.60651C37.5044 7.72794 34.2437 5.18295 33.1434 5.01562C33.1449 5.27856 33.317 5.84834 33.3923 6.16446C33.4833 6.54789 33.5482 6.99181 33.6171 7.39622C33.8133 8.547 33.8792 10.3217 33.7661 11.5164C33.6918 12.3023 33.6397 12.1628 33.9914 12.6989C34.7563 13.8648 35.3716 15.9215 34.8359 17.2669C33.9097 19.5938 32.8365 19.3294 32.0283 21.769C31.8665 22.2573 31.9039 22.5647 31.8055 23.0774" fill="#1E2A5B"/>
<path fill-rule="evenodd" clip-rule="evenodd" d="M34.5585 6.97219C33.651 6.34826 33.6579 6.73218 33.4144 5.42871C34.1552 5.56677 35.9038 6.91414 36.4616 7.33416C36.8782 7.64783 38.8211 9.20546 38.9273 9.73378C37.8083 9.77573 35.0204 9.98208 34.0165 9.78256L33.8227 7.42294L34.2747 7.50441C34.2826 7.48734 34.2836 7.46051 34.2865 7.4488C34.4292 6.94244 34.4198 7.27074 34.5585 6.9717" fill="#00AEEF"/>
<path fill-rule="evenodd" clip-rule="evenodd" d="M39.22 9.88916C39.3961 10.1814 39.5584 10.3565 39.7891 10.6302C41.7335 12.939 42.8771 15.4738 43.7265 18.389C43.8997 18.9827 44.0064 18.9783 43.3429 19.0442C42.8328 19.0949 37.8349 19.2296 37.2909 19.1671L37.0346 19.1022C36.8988 18.7754 36.6642 17.1295 36.5432 16.6051C36.1743 15.005 35.7306 13.5308 35.1011 12.0527C34.9579 11.7166 34.8054 11.3482 34.6559 11.039C34.498 10.7111 34.2644 10.3745 34.1808 10.0228L39.2195 9.88916H39.22Z" fill="#00AEEF"/>
<path fill-rule="evenodd" clip-rule="evenodd" d="M34.1011 19.1251C34.0342 18.9026 34.3367 18.6075 34.559 18.2255C35.3598 16.8494 35.3676 16.2508 35.0282 14.8069C34.8467 14.0361 34.5856 13.3283 34.2063 12.7121C33.8591 12.1482 33.8836 12.4063 33.9446 11.6511C33.9815 11.1984 33.9938 10.7935 34.0194 10.3306L34.1945 10.5047C34.2053 10.5194 34.2171 10.5379 34.227 10.553C34.2604 10.6033 34.315 10.7238 34.3554 10.8096C35.4665 13.1604 36.6927 16.7274 36.8216 19.1744L34.1006 19.1251H34.1011Z" fill="#00AEEF"/>
<path fill-rule="evenodd" clip-rule="evenodd" d="M37.2963 21.547C37.2506 21.3065 37.0041 19.5625 37.0868 19.4245C37.196 19.242 37.8211 19.3249 38.2181 19.3249L41.7778 19.3093C42.4152 19.2986 43.3522 19.144 43.9287 19.1859C44.0763 20.3172 44.3537 21.3738 44.4034 22.547C44.424 23.03 44.3099 23.7534 44.3261 24.3817C44.3443 25.0915 44.3522 25.5594 44.2396 26.2243C44.0581 25.9262 44.0118 25.7174 44.0133 25.3023C44.0153 24.6754 43.9179 24.7998 43.7698 24.3827C43.6129 23.9393 43.5795 22.8919 43.3217 22.6187C43.0566 22.7119 43.4127 22.4739 43.1053 22.8597C42.5864 23.512 43.004 22.8373 42.6282 23.6866C42.4605 24.0661 42.3301 24.6974 42.1103 24.9442C41.8924 25.1891 41.821 25.0749 41.7901 25.5291C41.7477 26.1506 41.6149 27.1097 41.3169 27.6004L41.1944 27.3292C41.0168 26.7033 41.28 26.4711 40.9735 25.2471C40.7915 24.5213 40.9509 23.4295 40.6051 23.0329C40.2618 23.1802 40.5889 23.1719 40.2229 23.3046L40.067 23.0919C40.1703 22.7402 39.9711 23.0036 40.3366 22.8153C39.3489 22.2768 39.6519 21.868 39.192 21.7421C38.9878 21.6865 38.5693 21.8377 38.1699 21.7592C37.7567 21.6782 37.8551 21.6187 37.2963 21.5465" fill="#00AEEF"/>
<path fill-rule="evenodd" clip-rule="evenodd" d="M36.6475 24.8201C35.8457 24.8401 36.1409 24.9279 35.6972 25.2586C35.5919 25.3372 35.5516 25.363 35.4011 25.423C34.9677 25.5952 35.1183 25.5142 34.7862 25.7328C34.4287 25.9684 34.4311 25.7411 34.1084 25.9099C33.9633 25.9855 33.7907 26.3806 33.5034 26.0811C33.3333 25.9035 33.4513 25.4879 33.4075 25.2396C33.3239 24.7635 33.0455 24.3566 32.8433 24.0337C32.6382 23.7064 32.6933 23.7522 32.4494 23.5083C32.0952 23.1541 32.3495 23.2834 32.2275 22.8034C32.1341 22.4361 31.9914 22.5687 32.1232 22.0341C32.4287 20.7965 33.1104 20.0711 33.7769 19.312L34.7376 19.3149C37.2013 19.3184 36.8457 19.1023 36.9736 20.2457C36.9839 20.3379 37.0149 20.6248 37.0144 20.7023C37.0139 20.8492 37.0164 21.0423 36.9028 21.1223C35.6524 21.5443 35.6072 19.6891 34.7981 20.0711C34.6721 20.3433 34.7897 20.8067 34.9358 21.0467C35.2398 21.5453 35.3268 20.8726 35.3922 21.7409C36.0474 21.8941 35.4818 21.8775 35.9171 22.3609C36.406 22.3604 35.9043 22.2356 36.4016 22.2126C36.4021 22.2126 36.8856 22.2287 36.9367 22.0873C36.9461 22.0614 36.9711 22.0614 36.9908 22.0541C37.1723 22.5297 37.1458 22.6263 37.1438 23.2307C37.1876 25.0093 36.888 24.0073 36.6465 24.8201" fill="#00AEEF"/>
<path fill-rule="evenodd" clip-rule="evenodd" d="M37.3583 23.6996C37.3484 23.4889 37.3474 23.2864 37.342 23.0766C37.3233 22.3513 37.3479 22.6488 37.4448 22.54C37.7045 22.7059 37.5526 22.7352 37.7783 23.0015C37.5201 23.4074 37.7773 23.4986 37.3583 23.6996Z" fill="#00AEEF"/>
<path fill-rule="evenodd" clip-rule="evenodd" d="M31.3304 32.7421C30.4534 33.1621 28.8105 34.127 27.6187 33.3694C27.5203 32.7006 27.6954 32.527 28.0279 32.224C28.7982 31.522 29.6275 30.5337 30.2163 29.6381C31.2035 28.1365 31.5404 26.8989 31.7022 24.7979C31.9118 24.9086 31.7307 24.7949 31.8699 24.914L32.7607 25.8028C33.4833 26.4321 33.137 26.7789 33.593 26.997C34.1316 27.2477 34.832 26.8936 35.2299 26.8165C35.1788 27.1126 34.6972 28.398 34.56 28.5775C34.2668 28.9614 33.6948 29.4195 33.2703 29.7503C32.1046 30.6591 31.4484 31.3211 31.3309 32.7421" fill="#00AEEF"/>
<path fill-rule="evenodd" clip-rule="evenodd" d="M29.7569 5.47034C29.779 6.20598 29.7219 6.90748 29.7957 7.65336C29.8247 7.94655 29.8582 8.31242 29.9015 8.60267C29.9984 9.25197 30.0067 8.84171 30.413 9.19685C30.3456 9.44954 30.2655 9.29978 30.1789 9.58223C30.7632 10.2876 30.6403 11.9033 29.9443 12.4028C29.3063 11.9604 29.354 10.4876 29.479 9.58028C29.2001 9.39246 29.2714 9.63833 29.1858 9.27343C29.3486 9.03098 29.3427 9.15148 29.5562 8.96659C29.4706 7.9002 29.3452 7.04748 29.3358 5.87914C29.3265 4.7108 23.8854 3.89369 23.8854 3.89369L24.2076 3.51416C24.2076 3.51416 29.7569 4.37859 29.7569 5.47034Z" fill="#00AEEF"/>
</g>
<defs>
<clipPath id="clip0_8_5549">
<rect width="45" height="45" fill="white"/>
</clipPath>
</defs>
</svg>
