<svg width="96" height="96" viewBox="0 0 96 96" fill="none" xmlns="http://www.w3.org/2000/svg">
<rect width="96" height="96" rx="48" fill="#D1FAE5"/>
<g clip-path="url(#clip0_155_2014)">
<rect width="64" height="64" transform="translate(16 16)" fill="#D1FAE5"/>
<path d="M47 62C46.6519 62 46.3097 61.909 46.0075 61.7362L28.5 51.73C28.3479 51.6422 28.1753 51.5959 27.9996 51.596C27.824 51.5961 27.6514 51.6424 27.4994 51.7304C27.3473 51.8183 27.2211 51.9447 27.1334 52.097C27.0458 52.2492 26.9997 52.4218 27 52.5975V62C26.9997 62.3569 27.0949 62.7075 27.2758 63.0152C27.4567 63.3229 27.7167 63.5766 28.0288 63.75L46.0288 73.75C46.3259 73.915 46.6601 74.0017 47 74.0017C47.3399 74.0017 47.6741 73.915 47.9713 73.75L65.9712 63.75C66.2833 63.5766 66.5433 63.3229 66.7242 63.0152C66.9051 62.7075 67.0003 62.3569 67 62V52.5975C67.0003 52.4218 66.9542 52.2492 66.8666 52.097C66.7789 51.9447 66.6527 51.8183 66.5006 51.7304C66.3486 51.6424 66.176 51.5961 66.0004 51.596C65.8247 51.5959 65.6521 51.6422 65.5 51.73L47.9925 61.7362C47.6903 61.909 47.3482 62 47 62Z" fill="#44DC8E"/>
<path d="M76.99 39.8125C76.99 39.8125 76.99 39.8025 76.99 39.7988C76.9576 39.4817 76.85 39.177 76.6761 38.91C76.5021 38.643 76.2669 38.4214 75.99 38.2638L47.99 22.2638C47.6877 22.091 47.3456 22.0001 46.9975 22.0001C46.6493 22.0001 46.3072 22.091 46.005 22.2638L18.005 38.2638C17.699 38.4387 17.4446 38.6915 17.2677 38.9964C17.0908 39.3013 16.9977 39.6475 16.9977 40C16.9977 40.3525 17.0908 40.6988 17.2677 41.0037C17.4446 41.3086 17.699 41.5613 18.005 41.7363L46.005 57.7363C46.3072 57.909 46.6493 57.9999 46.9975 57.9999C47.3456 57.9999 47.6877 57.909 47.99 57.7363L72.625 43.66C72.6631 43.638 72.7063 43.6265 72.7502 43.6265C72.7942 43.6266 72.8374 43.6382 72.8754 43.6603C72.9135 43.6823 72.945 43.714 72.9669 43.7522C72.9887 43.7903 73.0002 43.8335 73 43.8775V61.9438C73 63.02 73.8275 63.9438 74.9037 63.9975C75.1742 64.0105 75.4444 63.9685 75.6981 63.874C75.9518 63.7795 76.1837 63.6345 76.3797 63.4477C76.5757 63.261 76.7317 63.0364 76.8383 62.7875C76.945 62.5387 77 62.2707 77 62V40C76.9998 39.9374 76.9965 39.8748 76.99 39.8125Z" fill="#44DC8E"/>
</g>
<defs>
<clipPath id="clip0_155_2014">
<rect width="64" height="64" fill="white" transform="translate(16 16)"/>
</clipPath>
</defs>
</svg>
