<svg width="96" height="96" viewBox="0 0 96 96" fill="none" xmlns="http://www.w3.org/2000/svg">
<rect width="96" height="96" rx="48" fill="#D1FAE5"/>
<path fill-rule="evenodd" clip-rule="evenodd" d="M40.5084 24.6279C41.7897 24.0926 43.1645 23.817 44.5531 23.817C45.9417 23.817 47.3165 24.0926 48.5978 24.6279C49.8791 25.1632 51.0414 25.9474 52.0173 26.9353C52.9932 27.9231 53.7634 29.0948 54.2831 30.3825C54.8013 31.6665 55.0602 33.0403 55.045 34.4247L55.0287 57.9977L55.0285 58.0128C54.9994 59.8526 54.2482 61.6072 52.9369 62.8979C51.6256 64.1887 49.8594 64.9121 48.0194 64.9121C46.1794 64.9121 44.4132 64.1887 43.1019 62.8979C41.7906 61.6072 41.0393 59.8526 41.0102 58.0128L41.01 57.997V40C41.01 38.8954 41.9054 38 43.01 38C44.1146 38 45.01 38.8954 45.01 40V57.9635C45.026 58.7484 45.3481 59.4962 45.9079 60.0472C46.4709 60.6015 47.2293 60.9121 48.0194 60.9121C48.8094 60.9121 49.5678 60.6015 50.1309 60.0472C50.6908 59.4961 51.0129 58.748 51.0288 57.9629L51.045 34.3997L51.0451 34.3882C51.0556 33.529 50.8953 32.6764 50.5738 31.8796C50.2522 31.0828 49.7757 30.3577 49.1718 29.7465C48.5679 29.1353 47.8487 28.65 47.0559 28.3187C46.263 27.9875 45.4124 27.817 44.5531 27.817C43.6939 27.817 42.8432 27.9875 42.0504 28.3187C41.2575 28.65 40.5383 29.1353 39.9345 29.7465C39.3306 30.3577 38.8541 31.0828 38.5325 31.8796C38.2109 32.6764 38.0507 33.529 38.0611 34.3882L38.0612 34.4004V58.1545L38.061 58.1689C38.042 59.4861 38.2849 60.7939 38.7758 62.0163C39.2667 63.2387 39.9956 64.3513 40.9203 65.2895C41.845 66.2276 42.947 66.9726 44.1622 67.4811C45.3773 67.9896 46.6815 68.2515 47.9987 68.2515C49.316 68.2515 50.6202 67.9896 51.8353 67.4811C53.0505 66.9726 54.1525 66.2276 55.0772 65.2895C56.0019 64.3513 56.7308 63.2387 57.2217 62.0163C57.7126 60.7939 57.9555 59.4861 57.9365 58.1689L57.9362 58.1545V35.9675C57.9362 34.8629 58.8317 33.9675 59.9362 33.9675C61.0408 33.9675 61.9362 34.8629 61.9362 35.9675V58.1261C61.9609 59.9683 61.6202 61.7971 60.9336 63.5068C60.2452 65.2212 59.2228 66.7816 57.926 68.0974C56.6291 69.4131 55.0837 70.4579 53.3794 71.1711C51.6752 71.8842 49.8462 72.2515 47.9987 72.2515C46.1513 72.2515 44.3223 71.8842 42.6181 71.1711C40.9138 70.4579 39.3684 69.4131 38.0715 68.0974C36.7747 66.7816 35.7523 65.2212 35.0639 63.5068C34.3773 61.7971 34.0366 59.9682 34.0612 58.1261V34.424C34.0461 33.0398 34.3051 31.6663 34.8232 30.3825C35.3429 29.0948 36.113 27.9231 37.0889 26.9353C38.0649 25.9474 39.2271 25.1632 40.5084 24.6279Z" fill="#059669"/>
</svg>
