<svg width="65" height="64" viewBox="0 0 65 64" fill="none" xmlns="http://www.w3.org/2000/svg">
<path d="M32.3334 45.9999C31.9852 45.9999 31.6431 45.909 31.3409 45.7362L13.8334 35.7299C13.6812 35.6421 13.5087 35.5959 13.333 35.5959C13.1573 35.596 12.9848 35.6424 12.8327 35.7303C12.6807 35.8182 12.5545 35.9447 12.4668 36.0969C12.3791 36.2491 12.3331 36.4218 12.3334 36.5974V45.9999C12.3331 46.3569 12.4283 46.7074 12.6092 47.0151C12.7901 47.3229 13.0501 47.5766 13.3621 47.7499L31.3621 57.7499C31.6592 57.915 31.9935 58.0016 32.3334 58.0016C32.6733 58.0016 33.0075 57.915 33.3046 57.7499L51.3046 47.7499C51.6167 47.5766 51.8766 47.3229 52.0575 47.0151C52.2384 46.7074 52.3337 46.3569 52.3334 45.9999V36.5974C52.3336 36.4218 52.2876 36.2491 52.2 36.0969C52.1123 35.9447 51.9861 35.8182 51.834 35.7303C51.682 35.6424 51.5094 35.596 51.3337 35.5959C51.1581 35.5959 50.9855 35.6421 50.8334 35.7299L33.3259 45.7362C33.0236 45.909 32.6815 45.9999 32.3334 45.9999Z" fill="white"/>
<path d="M62.3234 23.8124C62.3234 23.8124 62.3234 23.8024 62.3234 23.7986C62.291 23.4816 62.1834 23.1769 62.0095 22.9099C61.8355 22.6429 61.6003 22.4213 61.3234 22.2636L33.3234 6.26364C33.0211 6.09088 32.679 6 32.3309 6C31.9827 6 31.6406 6.09088 31.3384 6.26364L3.33836 22.2636C3.03235 22.4386 2.77801 22.6913 2.60112 22.9962C2.42422 23.3011 2.33105 23.6474 2.33105 23.9999C2.33105 24.3524 2.42422 24.6986 2.60112 25.0035C2.77801 25.3084 3.03235 25.5612 3.33836 25.7361L31.3384 41.7361C31.6406 41.9089 31.9827 41.9998 32.3309 41.9998C32.679 41.9998 33.0211 41.9089 33.3234 41.7361L57.9584 27.6599C57.9964 27.6379 58.0396 27.6264 58.0836 27.6264C58.1276 27.6264 58.1708 27.6381 58.2088 27.6601C58.2468 27.6822 58.2784 27.7139 58.3002 27.752C58.3221 27.7902 58.3335 27.8334 58.3334 27.8774V45.9436C58.3334 47.0199 59.1609 47.9436 60.2371 47.9974C60.5075 48.0104 60.7778 47.9684 61.0315 47.8739C61.2852 47.7794 61.5171 47.6344 61.7131 47.4476C61.9091 47.2608 62.0651 47.0362 62.1717 46.7874C62.2783 46.5385 62.3333 46.2706 62.3334 45.9999V23.9999C62.3332 23.9373 62.3299 23.8747 62.3234 23.8124Z" fill="#04BBF1"/>
</svg>
